# Blender v2.91.0 OBJ File: 'navmesh.blend'
# www.blender.org
mtllib navmesh.mtl
o Plane
v -3.111588 0.000000 38.710499
v 2.724725 0.000000 38.710499
v -3.111588 0.000000 21.589809
v 2.724725 0.000000 21.589809
v -3.111588 0.000000 29.279713
v 2.724725 0.000000 29.279713
v 10.171835 0.000000 21.589809
v 10.171835 0.000000 29.279713
v -10.268550 0.000000 21.589809
v -10.268550 0.000000 29.279713
v -8.479309 0.000000 29.279713
v -8.479309 0.000000 21.589809
v -0.193431 0.000000 38.710499
v -1.595809 0.000000 21.589809
v -1.595809 0.000000 29.279713
v 8.382595 0.000000 21.589809
v 8.382595 0.000000 29.279713
v 1.265647 0.000000 38.710499
v 1.579973 0.000000 21.589809
v 1.579973 0.000000 29.279713
v 2.724725 0.000000 10.322430
v 8.382595 0.000000 10.322430
v 1.579973 0.000000 10.322430
v -3.111588 0.000000 10.370789
v -8.479309 0.000000 10.370789
v -1.595809 0.000000 10.370789
v -1.595809 0.000000 11.597488
v -3.111588 0.000000 11.597488
v 1.579973 0.000000 11.694204
v 2.724725 0.000000 11.694204
v -3.111588 0.000000 17.932365
v -1.595809 0.000000 17.978958
v 1.579973 0.000000 17.980724
v 2.724725 0.000000 17.980724
v -0.435221 0.000000 11.597488
v -0.435221 0.000000 17.978958
v 0.564458 0.000000 11.694204
v 0.564458 0.000000 17.980724
v -8.479309 0.000000 11.549129
v -8.479309 0.000000 17.884008
v 8.382595 0.000000 17.980724
v 8.382595 0.000000 11.694204
v -18.731174 0.000000 11.549129
v -18.731174 0.000000 17.884008
v 18.682817 0.000000 17.980724
v 18.682817 0.000000 11.694204
v 11.356604 0.000000 11.694204
v 11.356604 0.000000 17.980724
v -11.332423 0.000000 17.884008
v -11.332423 0.000000 11.549129
v 18.682817 0.000000 -19.351536
v 11.356604 0.000000 -19.351536
v -18.731174 0.000000 11.549129
v -11.332423 0.000000 11.549129
v -18.731174 0.000000 -19.641685
v -11.332423 0.000000 -19.641685
v -11.332423 0.000000 -1.652569
v -18.731174 0.000000 -1.652569
v -11.332423 0.000000 -4.505680
v -18.731174 0.000000 -4.505680
v -11.332423 0.000000 -11.952793
v -18.731174 0.000000 -12.097862
v -11.332423 0.000000 -18.674522
v -18.731174 0.000000 -18.722885
v -1.225633 0.000000 -11.952793
v -1.225633 0.000000 -18.674522
v 9.026233 0.000000 -1.652569
v 9.026233 0.000000 -4.505680
v -8.550196 0.000000 -4.505680
v -8.596211 0.000000 -1.652569
v 9.026233 0.000000 -9.389820
v -8.550196 0.000000 -9.389820
v -18.731174 0.000000 11.549129
v -18.731174 0.000000 -1.652569
v -18.731174 0.000000 -4.505680
v -18.731174 0.000000 -12.097862
v -18.731174 0.000000 -12.097862
v -18.731174 0.000000 -12.097862
v -18.731174 0.000000 -4.422119
v -18.731174 0.000000 -4.422119
v -8.550196 0.000000 -6.947746
v 9.026233 0.000000 -6.504467
v 11.356604 0.000000 -6.407749
v 18.682817 0.000000 -6.407749
v 18.682817 0.000000 -9.373695
v 11.356604 0.000000 -9.373695
v 9.026233 0.000000 -9.389820
v 9.026233 0.000000 -6.504467
v 11.356604 0.000000 -6.407749
v 11.356604 0.000000 -9.373695
v -18.731174 0.000000 5.955736
v -11.332423 0.000000 5.955736
v -18.731174 0.000000 4.948280
v -18.731174 0.000000 8.450197
v -18.731174 0.000000 8.248705
v -11.332423 0.000000 8.450197
v 11.356604 0.000000 1.232792
v 18.682817 0.000000 1.232792
v 11.356604 0.000000 4.347841
v 18.682817 0.000000 4.347841
v -8.591006 0.000000 1.232792
v -8.591006 0.000000 4.347841
v 9.098765 0.000000 5.955736
v 9.098765 0.000000 8.450197
v -8.531698 0.000000 5.955736
v -8.531698 0.000000 8.450197
v 8.958861 0.000000 4.347841
v 8.958861 0.000000 1.232792
v 18.682817 0.000000 -12.025322
v 11.356604 0.000000 -12.025322
v 1.805929 0.000000 -19.351536
v 1.805929 0.000000 -12.025322
v 8.757368 0.000000 -12.025322
v 8.757368 0.000000 -19.351536
v -8.616323 0.000000 -18.674522
v -8.616323 0.000000 -11.952793
v 1.805929 0.000000 -29.909664
v 8.757368 0.000000 -29.909664
v -1.225633 0.000000 -29.998314
v -8.616323 0.000000 -29.998314
v -8.616323 0.000000 -22.281212
v -1.225633 0.000000 -22.281212
v 1.805929 0.000000 -22.333603
v 8.757368 0.000000 -22.333603
v -2.320091 0.000000 -29.998314
v -2.279792 0.000000 -22.281212
v 3.241062 0.000000 -29.909664
v 3.241062 0.000000 -22.333603
v 1.805929 0.000000 -39.097649
v -1.225633 0.000000 -39.186310
v -2.320091 0.000000 -39.186310
v 3.241062 0.000000 -39.097649
vt 0.750000 0.500000
vt 1.000000 0.500000
vt 1.000000 1.000000
vt 0.750000 1.000000
vt 0.750000 0.000000
vt 1.000000 0.000000
vt 1.000000 1.000000
vt 1.000000 0.500000
vt 1.000000 0.500000
vt 1.000000 1.000000
vt 0.000000 0.500000
vt 0.000000 1.000000
vt 0.000000 1.000000
vt 0.000000 0.500000
vt 0.000000 0.500000
vt 0.000000 1.000000
vt 0.000000 0.000000
vt 0.500000 0.000000
vt 0.500000 0.500000
vt 0.500000 1.000000
vt 1.000000 1.000000
vt 0.750000 1.000000
vt 1.000000 1.000000
vt 0.000000 1.000000
vt 0.000000 1.000000
vt 0.500000 1.000000
vt 0.500000 1.000000
vt 0.500000 1.000000
vt 0.500000 1.000000
vt 0.000000 1.000000
vt 0.500000 1.000000
vt 0.000000 1.000000
vt 0.750000 1.000000
vt 1.000000 1.000000
vt 1.000000 1.000000
vt 0.750000 1.000000
vt 0.750000 1.000000
vt 0.750000 1.000000
vt 0.000000 1.000000
vt 0.000000 1.000000
vt 0.000000 1.000000
vt 0.000000 1.000000
vt 0.000000 1.000000
vt 0.000000 1.000000
vt 1.000000 1.000000
vt 1.000000 1.000000
vt 1.000000 1.000000
vt 1.000000 1.000000
vt 1.000000 1.000000
vt 1.000000 1.000000
vt 1.000000 1.000000
vt 1.000000 1.000000
vt 1.000000 1.000000
vt 1.000000 1.000000
vt 0.000000 1.000000
vt 0.000000 1.000000
vt 0.000000 1.000000
vt 0.000000 1.000000
vt 0.000000 1.000000
vt 0.000000 1.000000
vt 0.000000 1.000000
vt 0.000000 1.000000
vt 0.000000 1.000000
vt 0.000000 1.000000
vt 0.000000 1.000000
vt 0.000000 1.000000
vt 0.000000 1.000000
vt 0.000000 1.000000
vt 0.000000 1.000000
vt 0.000000 1.000000
vt 0.000000 1.000000
vt 0.000000 1.000000
vt 0.000000 1.000000
vt 0.000000 1.000000
vt 0.000000 1.000000
vt 0.000000 1.000000
vt 0.000000 1.000000
vt 0.000000 1.000000
vt 0.000000 1.000000
vt 0.000000 1.000000
vt 0.000000 1.000000
vt 0.000000 1.000000
vt 0.000000 1.000000
vt 0.000000 1.000000
vt 0.000000 1.000000
vt 0.000000 1.000000
vt 0.000000 1.000000
vt 0.000000 1.000000
vt 1.000000 1.000000
vt 1.000000 1.000000
vt 1.000000 1.000000
vt 1.000000 1.000000
vt 1.000000 1.000000
vt 1.000000 1.000000
vt 1.000000 1.000000
vt 1.000000 1.000000
vt 0.000000 1.000000
vt 0.000000 1.000000
vt 0.000000 1.000000
vt 0.000000 1.000000
vt 0.000000 1.000000
vt 0.000000 1.000000
vt 1.000000 1.000000
vt 1.000000 1.000000
vt 1.000000 1.000000
vt 1.000000 1.000000
vt 1.000000 1.000000
vt 1.000000 1.000000
vt 0.000000 1.000000
vt 0.000000 1.000000
vt 0.000000 1.000000
vt 0.000000 1.000000
vt 1.000000 1.000000
vt 1.000000 1.000000
vt 1.000000 1.000000
vt 1.000000 1.000000
vt 1.000000 1.000000
vt 1.000000 1.000000
vt 1.000000 1.000000
vt 1.000000 1.000000
vt 0.000000 1.000000
vt 0.000000 1.000000
vt 0.000000 1.000000
vt 0.000000 1.000000
vt 0.000000 1.000000
vt 1.000000 1.000000
vt 0.000000 1.000000
vt 0.000000 1.000000
vt 0.000000 1.000000
vt 1.000000 1.000000
vt 1.000000 1.000000
vt 1.000000 1.000000
vn 0.0000 1.0000 0.0000
vn 0.0000 0.0000 1.0000
vn 0.0000 -1.0000 0.0000
usemtl None
s off
f 20/1/1 6/2/1 4/3/1 19/4/1
f 18/5/1 2/6/1 6/2/1 20/1/1
f 16/7/1 17/8/1 8/9/1 7/10/1
f 11/11/1 12/12/1 9/13/1 10/14/1
f 5/15/1 3/16/1 12/12/1 11/11/1
f 1/17/1 13/18/1 15/19/1 5/15/1
f 5/15/1 15/19/1 14/20/1 3/16/1
f 4/3/1 6/2/1 17/8/1 16/7/1
f 13/18/1 18/5/1 20/1/1 15/19/1
f 15/19/1 20/1/1 19/4/1 14/20/1
f 19/4/1 4/3/1 34/21/1 33/22/1
f 4/3/1 16/7/1 41/23/1 34/21/1
f 12/12/1 3/16/1 31/24/1 40/25/1
f 3/16/1 14/20/1 32/26/1 31/24/1
f 27/27/1 32/26/1 36/28/1 35/29/1
f 28/30/1 27/27/1 26/31/1 24/32/1
f 29/33/1 30/34/1 21/35/1 23/36/1
f 31/24/1 32/26/1 27/27/1 28/30/1
f 33/22/1 34/21/1 30/34/1 29/33/1
f 33/22/1 29/33/1 37/37/1 38/38/1
f 49/39/1 50/40/1 43/41/1 44/42/1
f 39/43/1 28/30/1 24/32/1 25/44/1
f 40/25/1 31/24/1 28/30/1 39/43/1
f 34/21/1 41/23/1 42/45/1 30/34/1
f 30/34/1 42/45/1 22/46/1 21/35/1
f 47/47/1 48/48/1 45/49/1 46/50/1
f 42/45/1 41/23/1 48/48/1 47/47/1
f 40/25/1 39/43/1 50/40/1 49/39/1
f 110/51/1 109/52/1 51/53/1 52/54/1
f 43/41/2 50/40/2 54/55/2 53/56/2
f 91/57/1 92/58/1 57/59/1 58/60/1
f 115/61/1 116/62/1 65/63/1 66/64/1
f 58/60/1 57/59/1 59/65/1 60/66/1
f 60/66/1 59/65/1 61/67/1 62/68/1
f 62/68/1 61/67/1 63/69/1 64/70/1
f 64/70/1 63/69/1 56/71/1 55/72/1
f 59/65/1 57/59/1 70/73/1 69/74/1
f 81/75/1 82/76/1 71/77/1 72/78/1
f 69/74/1 70/73/1 67/79/1 68/80/1
f 91/57/1 58/60/1 74/81/1 93/82/1
f 60/66/2 62/68/2 76/83/2 75/84/2
f 76/83/2 62/68/2 77/85/2 78/86/2
f 60/66/2 75/84/2 80/87/2 79/88/2
f 69/74/1 68/80/1 82/76/1 81/75/1
f 97/89/1 98/90/1 84/91/1 83/92/1
f 83/92/1 84/91/1 85/93/1 86/94/1
f 83/92/2 86/94/2 90/95/2 89/96/2
f 71/77/2 82/76/2 88/97/2 87/98/2
f 88/97/1 89/96/1 90/95/1 87/98/1
f 94/99/2 91/57/2 93/82/2 95/100/2
f 94/99/1 96/101/1 92/58/1 91/57/1
f 53/56/1 54/55/1 96/101/1 94/99/1
f 53/56/3 94/99/3 95/100/3 73/102/3
f 99/103/1 100/104/1 98/90/1 97/89/1
f 47/47/1 46/50/1 100/104/1 99/103/1
f 107/105/1 108/106/1 101/107/1 102/108/1
f 105/109/1 106/110/1 104/111/1 103/112/1
f 92/58/1 96/101/1 106/110/1 105/109/1
f 99/103/1 97/89/1 108/106/1 107/105/1
f 103/112/1 107/105/1 102/108/1 105/109/1
f 86/94/1 85/93/1 109/52/1 110/51/1
f 113/113/1 114/114/1 111/115/1 112/116/1
f 110/51/1 52/54/1 114/114/1 113/113/1
f 63/69/1 61/67/1 116/62/1 115/61/1
f 123/117/1 128/118/1 127/119/1 117/120/1
f 121/121/1 126/122/1 125/123/1 120/124/1
f 115/61/1 66/64/1 122/125/1 126/122/1 121/121/1
f 111/115/1 114/114/1 124/126/1 128/118/1 123/117/1
f 122/125/1 123/117/1 117/120/1 119/127/1
f 125/123/1 119/127/1 130/128/1 131/129/1
f 125/123/1 126/122/1 122/125/1 119/127/1
f 127/119/1 128/118/1 124/126/1 118/130/1
f 119/127/1 117/120/1 129/131/1 130/128/1
f 117/120/1 127/119/1 132/132/1 129/131/1
